{
    "accessors" : [
        {
            "bufferView" : 0,
            "componentType" : 5123,
            "count" : 45546,
            "max" : [
                29951
            ],
            "min" : [
                0
            ],
            "type" : "SCALAR"
        },
        {
            "bufferView" : 1,
            "componentType" : 5126,
            "count" : 29952,
            "max" : [
                2.8443899154663086,
                1.8579277992248535,
                1.307935357093811
            ],
            "min" : [
                -0.8909300565719604,
                -1.8570287227630615,
                -1.4373722076416016
            ],
            "type" : "VEC3"
        },
        {
            "bufferView" : 2,
            "componentType" : 5126,
            "count" : 29952,
            "max" : [
                0.9995944499969482,
                0.9999997615814209,
                1.0
            ],
            "min" : [
                -0.9995883703231812,
                -0.9999998211860657,
                -1.0
            ],
            "type" : "VEC3"
        },
        {
            "bufferView" : 3,
            "componentType" : 5126,
            "count" : 29952,
            "max" : [
                0.8654754161834717,
                1.264843463897705
            ],
            "min" : [
                0.06900456547737122,
                0.06863236427307129
            ],
            "type" : "VEC2"
        }
    ],
    "asset" : {
        "generator" : "Khronos Blender glTF 2.0 exporter",
        "version" : "2.0"
    },
    "bufferViews" : [
        {
            "buffer" : 0,
            "byteLength" : 91092,
            "byteOffset" : 0,
            "target" : 34963
        },
        {
            "buffer" : 0,
            "byteLength" : 359424,
            "byteOffset" : 91092,
            "target" : 34962
        },
        {
            "buffer" : 0,
            "byteLength" : 359424,
            "byteOffset" : 450516,
            "target" : 34962
        },
        {
            "buffer" : 0,
            "byteLength" : 239616,
            "byteOffset" : 809940,
            "target" : 34962
        }
    ],
    "buffers" : [
        {
            "byteLength" : 1049556,
            "uri" : "data:application/octet-stream;base64,"
        }
    ],
    "meshes" : [
        {
            "name" : "CUBezierCurve.001",
            "primitives" : [
                {
                    "attributes" : {
                        "NORMAL" : 2,
                        "POSITION" : 1,
                        "TEXCOORD_0" : 3
                    },
                    "indices" : 0
                }
            ]
        }
    ],
    "nodes" : [
        {
            "mesh" : 0,
            "name" : "BezierCurve",
            "rotation" : [
                0.7071068286895752,
                0.0,
                -0.0,
                0.7071068286895752
            ],
            "translation" : [
                -2.445225238800049,
                2.0183582305908203,
                0.4115639626979828
            ]
        },
        {
            "name" : "Camera",
            "translation" : [
                0.0,
                10.0,
                -0.0
            ]
        },
        {
            "name" : "Hemi",
            "translation" : [
                -0.07957208156585693,
                4.389081001281738,
                2.5014150142669678
            ]
        }
    ],
    "scene" : 0,
    "scenes" : [
        {
            "name" : "Scene",
            "nodes" : [
                2,
                0,
                1
            ]
        }
    ]
}
